<?xml version="1.0" encoding="UTF-8"?>
<svg id="Layer_1" data-name="Layer 1" xmlns="http://www.w3.org/2000/svg" viewBox="0 0 161 129.5">
  <defs>
    <style>
      .cls-1 {
        stroke-width: 0px;
      }
    </style>
  </defs>
  <path class="cls-1" d="M34.33,48.25c.03.27.08.54.08.81,0,11.33,0,22.67,0,34,0,.27-.02.54-.04.84-.29.01-.52.03-.74.03-9.56,0-19.12,0-28.67,0-.23,0-.45-.01-.68-.02,0-11.88,0-23.75,0-35.67,10.01,0,20.03,0,30.04,0ZM18.9,83.16v-16.93H5.08v16.93h13.82ZM19.78,49.02v16.35h13.85v-16.35h-13.85ZM29.68,76.08c.34-.4.54-.63.77-.91.12.32.21.55.25.68.74,0,1.41.03,2.07-.02.19-.01.36-.26.55-.39-.17-.13-.37-.39-.51-.36-1.39.29-1.95-.44-2.16-1.66-.04-.22-.14-.43-.23-.64-.05-.11-.17-.28-.21-.27-.53.17-.43-.27-.49-.51-.16-.63-.28-1.26-.42-1.89-.06,0-.11.01-.17.02-.13,1.02-.27,2.03-.4,3.05-.04,0-.09,0-.13,0-.2-.79-.4-1.57-.63-2.49-.45.9-.29,1.87-1.03,2.75-.27-1.51-.49-2.79-.72-4.08-.05,0-.11.01-.16.02-.27,1.64-.54,3.27-.81,4.91-.09.02-.17.05-.26.07-.42-.87-.85-1.74-1.31-2.69.03,0-.12.02-.27.05-.16-.96-.31-1.86-.47-2.77-.06,0-.12.01-.19.02-.24,1.68-.48,3.36-.75,5.17-.28-.34-.45-.55-.68-.84-.23.38-.4.71-.61,1.01-.19.28-.37.68-.64.77-.43.14-.49.42-.31.64.12.14.59.15.78.03.3-.18.5-.53.79-.86.33.57.63,1.08,1.03,1.76.17-1.04.3-1.86.44-2.68.05,0,.09,0,.14.01.13.83.27,1.67.42,2.64.22-.32.32-.47.46-.68.16.71.29,1.34.43,1.96.05,0,.11,0,.16,0,.11-.74.23-1.48.36-2.33.34.36.6.63.94.99.17-.82.32-1.5.47-2.19.03,0,.07.01.1.02.09.65.17,1.3.28,2.13.27-.39.41-.6.55-.81.14.11.24.19.37.31.16-.44.3-.81.44-1.18.05.01.1.03.14.04.18.95.36,1.9.54,2.85.05,0,.11,0,.16.01.19-1.11.38-2.23.58-3.34.03,0,.07.01.1.02.07.49.13.97.22,1.65ZM8.97,53.03c.34-.12.59-.28.85-.28.34,0,.74.04,1.01.23.73.51,1.13,1.16.78,2.14-.15.41.05.94.07,1.41.02.52.04,1.05.04,1.57,0,.82,0,1.64,0,2.46,0,.32.05.65.02.97-.13,1.13-.36,1.27-1.44.91-.79-.27-1.23.07-1.08.84h5.9c.02-.87-.42-1.1-1.3-.77-.8.3-1.18.14-1.38-.7-.09-.38-.08-.79-.07-1.19.04-1.89.09-3.77.14-5.66,0-.07-.02-.15-.03-.22-.09-.53-.15-.85.41-1.39.79-.76,1.33-.76,2.19-.31-.48,1.8-.96,3.61-1.45,5.42-.26.96,0,1.56.95,1.74.65.12,1.4.02,2.03-.18.6-.19.82-.72.59-1.41-.55-1.67-1.04-3.35-1.54-5.03-.14-.47-.13-.99-.77-1.19-.43-.14-.79-.6-1.21-.65-.43-.05-.89.23-1.35.36-.07-.4-.16-.87-.28-1.57-.13.7-.21,1.18-.31,1.69-1.01-.83-2.93-.29-3.22.83-.47,1.82-.95,3.64-1.44,5.45-.25.93-.05,1.5.88,1.69.65.13,1.4.06,2.04-.13.63-.19.89-.72.65-1.45-.59-1.83-1.12-3.69-1.69-5.58Z"/>
  <path class="cls-1" d="M142.27,71.08v-20.9c.08-.05.12-.11.16-.11,2.76.06,5.54-.02,8.28.24,3.91.37,6.35,2.77,7.5,6.38,1.25,3.93.95,7.74-1.65,11.13-1.27,1.65-2.98,2.76-5.09,2.9-3.03.21-6.07.25-9.19.36ZM146.27,67.14c1.45-.09,2.81-.11,4.15-.26,1.85-.2,3.11-1.28,3.75-2.97.35-.92.54-1.94.6-2.92.29-4.92-3.82-8.24-8.5-6.91v13.06Z"/>
  <path class="cls-1" d="M94.46,70.93v-9.04h-6.92v9.05h-4.03v-20.87h4.01v7.81h6.92v-7.78h4.04v20.84h-4.02Z"/>
  <path class="cls-1" d="M124.53,49.94c2.59.11,5.14.06,7.65.36,3.18.38,4.99,3.01,4.73,6.41-.17,2.2-1.25,3.76-3.24,4.7-.2.09-.4.19-.66.31,1.63,3.06,3.24,6.09,4.93,9.25-1.48,0-2.84.02-4.21-.02-.17,0-.38-.29-.48-.49-1.36-2.54-2.71-5.09-4.07-7.63-.13-.24-.3-.47-.45-.7-.06.02-.12.04-.18.06v8.72h-4.02v-20.98ZM128.55,58.27c1.01-.08,1.97-.1,2.9-.25,1.06-.17,1.56-.85,1.58-1.89,0-.95-.59-1.82-1.53-1.98-.95-.16-1.93-.16-2.95-.24v4.36Z"/>
  <path class="cls-1" d="M59.85,64.64c.89.93,1.77,1.84,2.65,2.76-3.19,3.73-7.9,5-12.91,3.53-4.33-1.27-7.22-5.36-7.26-10.09-.05-5.23,2.67-9.14,7.45-10.74,4.54-1.52,10.18.07,12.83,3.68-.9.86-1.82,1.73-2.63,2.5-1.23-.79-2.3-1.66-3.51-2.21-4.38-1.98-9.45.74-10.06,5.3-.42,3.12.85,5.87,3.38,7.32,2.55,1.46,5.99,1.2,8.38-.65.55-.43,1.07-.9,1.67-1.4Z"/>
  <path class="cls-1" d="M114.44,50.07h3.94c.03.17.09.31.09.45-.02,4.89.01,9.78-.08,14.67-.06,3.15-2.25,5.59-5.29,6.18-3.46.67-6.95-.75-8.05-3.54-.52-1.32-.71-2.83-.74-4.26-.09-4.31-.03-8.63-.03-12.94,0-.17.04-.34.06-.54h3.98v.88c0,4.19,0,8.38,0,12.56,0,.6.04,1.2.13,1.8.21,1.37,1.18,2.19,2.61,2.25,1.63.07,2.85-.65,3.15-1.98.17-.75.22-1.54.22-2.31.02-4.09,0-8.18,0-12.26,0-.29,0-.59,0-.95Z"/>
  <path class="cls-1" d="M67.21,70.92v-1.05c0-6.32,0-12.64-.01-18.95,0-.66.13-.91.86-.9,3.27.04,6.54.02,9.81.02.24,0,.49.02.77.04v3.86h-7.36v3.78h7.36v3.84h-7.38v5.46h7.38v3.9h-11.43Z"/>
  <path class="cls-1" d="M136.28,78.41v4.2c-.38-.07-.72-.16-1.07-.18-.17-.01-.36.05-.53.12-.79.32-1.61.13-2.19-.51-.64-.71-.74-1.95-.24-2.81.41-.7,1.22-1.1,1.98-.92.48.11.91.38,1.43.07.14-.08.38.02.62.03ZM133,80.39c-.04.74.44,1.31,1.12,1.32.64.02,1.16-.51,1.19-1.2.03-.68-.46-1.24-1.1-1.28-.65-.04-1.17.46-1.21,1.16Z"/>
  <path class="cls-1" d="M75.96,78.23v4.31c-.31,0-.6,0-.89,0-.23,0-.49-.06-.7.01-.79.29-1.55.14-2.14-.47-.63-.66-.8-1.71-.42-2.6.33-.77,1.04-1.28,1.82-1.21.39.03.76.31,1.14.32.35,0,.71-.2,1.19-.35ZM74.98,80.45c-.01-.69-.52-1.22-1.16-1.21-.66,0-1.13.52-1.14,1.23,0,.73.52,1.28,1.19,1.25.64-.03,1.12-.57,1.11-1.27Z"/>
  <path class="cls-1" d="M143.69,76.85v1.81c.3-.13.49-.22.69-.29,1.05-.37,1.95.24,1.97,1.34.02.92,0,1.84,0,2.81h-1.03c0-.74.01-1.46,0-2.18-.01-.51-.04-1.08-.74-1.09-.63,0-.85.49-.88,1.02-.04.72-.01,1.45-.01,2.23h-1.06c0-.68,0-1.37,0-2.05,0-.98.04-1.96-.01-2.93-.04-.77.28-.92,1.07-.67Z"/>
  <path class="cls-1" d="M122.63,76.74v1.91c.33-.12.57-.23.82-.31,1-.3,1.85.27,1.89,1.31.03.85,0,1.7,0,2.55,0,.1-.03.19-.05.33h-.98c0-.75.02-1.47,0-2.19-.01-.51-.04-1.09-.75-1.08-.67,0-.86.54-.89,1.1-.03.7,0,1.39,0,2.16h-1v-5.72c.27-.01.55-.03.96-.05Z"/>
  <path class="cls-1" d="M130.86,80.77h-3.19c.11.84.81,1.19,1.61.88q.65-.25,1.27.11c-.53.89-1.78,1.21-2.82.71-1-.47-1.46-1.62-1.11-2.74.34-1.1,1.44-1.69,2.64-1.42,1.12.25,1.73,1.13,1.6,2.45ZM129.75,79.91c.03-.09.06-.17.09-.26-.37-.17-.74-.46-1.11-.46-.37,0-.73.31-1.1.49.03.08.07.15.1.23h2.02Z"/>
  <path class="cls-1" d="M107.66,81.84c-.82.93-2.09,1.14-3.08.53-.92-.57-1.26-1.83-.78-2.86.46-.99,1.54-1.47,2.65-1.17,1.06.29,1.64,1.21,1.48,2.43h-3.19c.18.89.92,1.27,1.71.84.55-.3.86-.12,1.22.23ZM106.93,79.93c-.3-.64-.73-.86-1.26-.74-.34.08-.64.34-.96.53.04.07.08.14.13.22h2.09Z"/>
  <path class="cls-1" d="M60.72,78.25c1.25,0,2.25.98,2.25,2.23,0,1.22-.96,2.2-2.18,2.22-1.24.02-2.25-.97-2.25-2.23,0-1.24.96-2.21,2.17-2.22ZM60.69,81.7c.66.03,1.18-.46,1.22-1.16.03-.69-.44-1.25-1.09-1.28-.66-.03-1.19.47-1.22,1.16-.03.7.43,1.24,1.09,1.28Z"/>
  <path class="cls-1" d="M117.65,82.54h-.99c0-.76.01-1.5,0-2.24,0-.48-.03-1.03-.69-1.05-.63-.02-.87.45-.9.99-.03.74,0,1.49,0,2.28h-1.04v-4.16c.32.02.61.03.9.04.21,0,.45.08.63.01,1.23-.46,2.12.11,2.15,1.41.01.78,0,1.55,0,2.33,0,.1-.03.19-.05.38Z"/>
  <path class="cls-1" d="M84.46,78.4h1.16c0,.81,0,1.58,0,2.35,0,.5.16.92.74.94.63.02.8-.41.81-.95,0-.75,0-1.5,0-2.33.35-.02.64-.03,1.1-.05-.07,1.12-.04,2.19-.22,3.23-.13.78-.91,1.17-1.82,1.12-.85-.05-1.51-.53-1.6-1.32-.12-.96-.12-1.94-.18-2.98Z"/>
  <path class="cls-1" d="M102.38,81.82c-.87,1.07-2.59,1.18-3.55.25-.9-.87-.88-2.4.05-3.22,1.04-.92,2.68-.77,3.54.34-.37.3-.66.6-1.22.22-.56-.38-1.33-.19-1.7.3-.37.49-.39,1.02-.03,1.53.35.49,1.11.68,1.7.31.57-.36.86-.07,1.2.27Z"/>
  <path class="cls-1" d="M68.18,81.85c-.99,1.06-2.66,1.13-3.59.18-.84-.84-.83-2.32.02-3.12,1.02-.97,2.67-.87,3.64.26-.38.35-.71.59-1.28.22-.56-.36-1.33-.15-1.69.35-.34.48-.35.99-.02,1.47.34.5,1.07.64,1.7.37q.64-.28,1.22.27Z"/>
  <path class="cls-1" d="M92.25,78.87c-.29.3-.45.48-.56.59-.43-.06-.79-.11-1.15-.17-.02.09-.05.18-.07.27.24.15.48.32.73.45,1.02.55,1.36,1.31.89,2.03-.47.73-1.6.87-2.42.31-.12-.08-.24-.18-.41-.3.22-.27.39-.48.59-.71.26.13.49.29.74.34.19.03.4-.09.6-.15-.09-.18-.15-.4-.29-.52-.18-.16-.44-.24-.65-.37-.72-.45-.98-1.03-.72-1.62.27-.62,1.04-.93,1.8-.67.29.1.55.31.92.52Z"/>
  <path class="cls-1" d="M57.47,78.95c-.2.21-.38.4-.49.53-.43-.09-.78-.16-1.12-.23-.03.09-.07.19-.1.28.25.16.5.35.76.49.6.32,1.12.68,1.05,1.48-.05.6-.4.97-.96,1.12-.76.21-1.43.06-1.98-.64.18-.22.35-.43.5-.61.11,0,.15,0,.2.02.38.06,1.06.24,1.1.16.25-.61-.4-.61-.71-.8-.54-.34-1.1-.71-.93-1.38.1-.4.53-.85.93-1.01.64-.27,1.26-.03,1.75.61Z"/>
  <path class="cls-1" d="M82.1,78.4h1.01c0,1.69.05,3.35-.02,5.01-.03.69-.88,1.06-1.51.74-.14-.07-.24-.3-.26-.46,0-.1.17-.32.28-.32.53-.03.5-.39.5-.75,0-1.13,0-2.25,0-3.38,0-.27,0-.54,0-.85Z"/>
  <path class="cls-1" d="M141.11,82.53h-1.07c0-.85.03-1.69-.02-2.53-.01-.26-.25-.5-.34-.77-.07-.22-.18-.63-.12-.66.74-.38.36-1.09.53-1.68h1.01c0,.32-.05.62.02.9.05.21.21.44.38.58.32.24.32.64.03.9-.2.18-.4.46-.41.71-.05.84-.02,1.68-.02,2.56Z"/>
  <path class="cls-1" d="M78.29,76.83v5.69h-1.02c0-.53,0-1.07,0-1.6,0-1.12,0-2.25,0-3.37,0-.87.03-.89,1.02-.72Z"/>
  <path class="cls-1" d="M94.62,76.89c0,.32-.05.61.01.86.05.22.19.46.36.6.32.25.34.64.05.91-.2.18-.39.46-.41.71-.05.82-.02,1.65-.02,2.54h-1.02c0-.82,0-1.64,0-2.45,0-.33.12-.71-.39-.86-.1-.03-.17-.61-.13-.63.8-.34.39-1.08.59-1.68h.95Z"/>
  <path class="cls-1" d="M138.6,76.74v5.77h-.94v-5.73c.28-.01.56-.03.94-.04Z"/>
  <path class="cls-1" d="M70.48,82.53h-.96v-4.13h.96v4.13Z"/>
  <path class="cls-1" d="M97.06,82.53h-.98v-4.11h.98v4.11Z"/>
  <path class="cls-1" d="M112.64,82.53h-.97v-4.11h.97v4.11Z"/>
  <path class="cls-1" d="M113.11,77.28c-.43.33-.7.69-.92.66-.25-.03-.62-.39-.64-.63-.01-.21.36-.61.61-.64.23-.03.51.3.96.6Z"/>
  <path class="cls-1" d="M96.53,78.28c-.29-.47-.6-.75-.57-.99.03-.24.41-.43.63-.65.22.23.59.45.6.7.02.24-.33.5-.67.94Z"/>
  <path class="cls-1" d="M69.95,78.28c-.28-.47-.59-.76-.56-1,.04-.24.41-.43.64-.64.21.23.58.46.59.7.01.24-.34.49-.68.93Z"/>
  <path class="cls-1" d="M82.6,76.34c.34.45.69.71.67.94-.02.25-.38.48-.59.71-.23-.22-.6-.41-.64-.66-.04-.23.27-.52.56-.99Z"/>
  <path class="cls-1" d="M15.38,53.56c.54,1.75,1.07,3.51,1.63,5.33h-3.25c.48-1.8.96-3.56,1.43-5.32.06,0,.12,0,.18-.01Z"/>
  <path class="cls-1" d="M8.84,53.51c.54,1.78,1.08,3.56,1.63,5.39h-3.24c.49-1.84.97-3.61,1.45-5.38.05,0,.1,0,.16,0Z"/>
</svg>