<?xml version="1.0" encoding="UTF-8"?>
<svg id="Layer_1" data-name="Layer 1" xmlns="http://www.w3.org/2000/svg" viewBox="0 0 161 129.5">
  <defs>
    <style>
      .cls-1, .cls-2 {
        stroke-width: 0px;
      }

      .cls-2 {
        fill: #fff;
      }
    </style>
  </defs>
  <path class="cls-1" d="M92.21,72.09h-8.61c-2.64-9.99-5.26-19.95-7.89-29.91-.2-.01-.4-.02-.6-.04-.9,3.36-1.82,6.72-2.71,10.09-1.57,5.98-3.14,11.97-4.68,17.96-.36,1.39-.91,2.18-2.61,2.01-1.95-.2-3.93-.05-6.18-.05-1.25-5.33-2.49-10.63-3.73-15.93-.2,0-.4,0-.6-.01-.92,4.03-1.86,8.05-2.75,12.09-.85,3.85-.83,3.86-4.76,3.85-1.45,0-2.91,0-4.64,0-2.69-10.19-5.37-20.38-8.11-30.8h9.24c1.24,5.47,2.51,11.04,3.77,16.61l.53.02c1.23-5.58,2.46-11.15,3.69-16.69h7.75c1.34,5.56,2.66,11.05,3.99,16.54.19.04.38.07.56.11,1.27-5.49,2.53-10.97,3.83-16.6h17.07c1.23,5.46,2.48,10.96,3.72,16.46.2,0,.4.01.6.02,1.22-5.5,2.44-11.01,3.66-16.54h7.75c1.34,5.58,2.67,11.14,4,16.7.19.02.37.03.56.05,1.27-5.55,2.54-11.11,3.83-16.73h7.45c-.61,2.61-1.13,5.05-1.76,7.46-1.85,7.05-3.8,14.07-5.59,21.13-.42,1.66-1,2.49-2.89,2.31-1.94-.19-3.91-.04-5.98-.04-1.28-5.44-2.53-10.73-3.77-16.02-.19.02-.39.03-.58.05-1.17,5.24-2.34,10.48-3.54,15.9Z"/>
  <path class="cls-1" d="M152.46,72.09h-8.84v-20.07c-.28-.04-.55-.09-.83-.13-1.51,6.71-3.02,13.42-4.55,20.2h-6.31c-1.58-6.71-3.17-13.48-4.76-20.26-.18.02-.36.04-.54.05v20.09h-7.5v-30.75c3.77,0,7.52-.08,11.26.08.58.02,1.45,1,1.64,1.69,1.15,4.16,2.14,8.36,3.21,12.55.09.37.33.7.79,1.63,1.25-5.06,2.43-9.51,3.4-14.01.31-1.47.83-2.01,2.33-1.97,3.51.08,7.02.03,10.72.03v30.87Z"/>
  <path class="cls-1" d="M13.58,49.61c-.23-.84-.41-1.52-.59-2.2-.14-.01-.29-.03-.43-.04-.17.71-.35,1.43-.55,2.27,3.04,1.51,4.59-.88,5.77-2.46,2.16-2.88,3.74-6.2,5.55-9.34.58-1,1.13-2.01,1.69-3.01.23.05.45.09.68.14,0,.58.21,1.29-.03,1.74-1.67,3.03-3.2,6.18-5.25,8.96-1.46,1.98-3.14,3.7-3.24,6.32-.02.56-.29,1.34-.02,1.63,1.7,1.85.59,3.18-.57,4.43.33.5.83.96.95,1.49.42,1.8.79,3.61,1.01,5.44.2,1.57.05,3.18.28,4.75.35,2.35,1.2,4.66,1.23,6.99.02,1.45-.9,3-1.67,4.36-1.89,3.36-.66,5.46,3.4,5.56.51,1.14.99,2.3,1.53,3.43,1.07,2.27.6,4.12-1.45,5.48-3.16,2.1-8.96,2.2-11.98.05-.68-.48-1.11-1.46-1.41-2.29-.34-.93-.39-1.97-.58-2.99,2.66-1.78,3.06-3,2.15-6.15-.16-.55.08-1.2.1-1.8.02-.81.21-1.69-.03-2.43-.57-1.82-1.47-3.51.26-5.31.5-.52.54-1.72.42-2.56-.26-1.83-.75-3.62-.66-5.64.44.61.87,1.21,1.26,1.75.53-1.41,1.03-2.78,1.61-4.33.99.69,1.72,1.21,2.45,1.72.12-.2.24-.4.36-.6-1.53-.83-3.06-1.66-4.66-2.52,1.18-3.62.91-4.57-2.1-6.13-1.89,1.91-3.67,3.78-4.07,6.77-.28,2.12-.64,4.47-2.72,6.46,1.4-7.01,5.77-16.3,8.48-17.94-.58-.09-.94-.15-1.31-.21.05-.14.07-.36.16-.41,1.54-.7,2.27-3.25,1.57-5.55-1-3.29-.1-4.4,3.04-4.23.28,1.14.53,2.18.85,3.48.17-.08-.34.17-.86.41.05.15.1.29.15.44.4-.06.8-.13,1.72-.28-.92,1.59-1.69,2.9-2.53,4.35ZM11.72,53.18c.26,1.09.41,1.71.5,2.09,1.68.22,3.11.4,4.55.58.06-.32.11-.65.17-.97-1.61-.53-3.21-1.05-5.22-1.71Z"/>
  <path class="cls-1" d="M92.91,90.19v-4.3c-.16-.12-.33-.25-.49-.37-.41.49-1.03.92-1.19,1.48-.2.71.07,1.54-.06,2.28-.08.47-.52.87-.81,1.3-.36-.44-.91-.83-1.03-1.32-.17-.72.07-1.54-.07-2.28-.09-.49-.55-.91-.84-1.37-.23.08-.45.16-.68.24,0,1.15.11,2.31-.05,3.44-.07.47-.7.87-1.08,1.3-.36-.46-.98-.89-1.02-1.37-.13-1.51-.05-3.04-.05-4.7h9.26c.16.69.32,1.36.51,2.16.81-.95,1.48-1.74,2.16-2.53.21.15.43.31.64.46v5.78c-.23.14-.47.27-.7.41-.6-.84-1.2-1.68-1.77-2.47-.56.74-1.23,1.61-1.89,2.49-.28-.21-.55-.42-.83-.63Z"/>
  <path class="cls-1" d="M121.93,88.91c.38-.14.76-.28.58-.21.2-1.51-.06-3.26.63-3.8,1.11-.87,2.85-.97,4.16,1.01-1.12.07-1.94.12-2.83.18,1.39.89,2.68,1.71,3.52,2.25.18-1.18-.05-2.88.65-3.45,1.16-.95,2.85-.84,4.35.95h-3.02c-.03.14-.06.27-.09.41.23.13.45.34.7.38,1.51.26,2.99.96,2.02,2.57-.51.84-2.44,1.31-3.61,1.13-1.03-.16-1.81-.4-2.94-.07-1.23.35-2.7-.12-4.06-.23-.02-.37-.03-.74-.05-1.11Z"/>
  <path class="cls-1" d="M116.88,90.39c-.08-1.02-.14-1.85-.24-3.13-.53,1.41-.89,2.39-1.55,4.14-.68-1.74-1.08-2.77-1.67-4.29-.15,1.53-.25,2.49-.34,3.46-.28.02-.55.05-.83.07-1.19-1.79-.12-3.98-.69-6.12,1.07-.07,1.89-.12,2.84-.18.22.82.39,1.5.8,3.02.47-2.5,1.28-3.68,3.27-2.76.68,4.68.44,5.63-1.59,5.8Z"/>
  <path class="cls-1" d="M62.69,84.71c0,1.38.1,2.82-.05,4.24-.06.57-.65,1.09-1,1.63-.31-.57-.66-1.12-.91-1.71-.12-.29-.06-.66-.11-1.63-.51,1.46-.84,2.38-1.44,4.11-.7-1.64-1.12-2.64-1.55-3.65-.15.13-.33.2-.36.31-.25.86-.47,1.72-.7,2.59-.23-.85-.54-1.69-.65-2.56-.14-1.08-.13-2.19-.19-3.5.84-.05,1.66-.1,2.62-.17.21.77.4,1.45.82,2.97.49-2.43,1.2-3.72,3.52-2.62Z"/>
  <path class="cls-1" d="M41.63,84.12c.64.8,1.28,1.61,1.84,2.3.43-.52,1.06-1.29,1.69-2.06.51.78,1.02,1.56,1.49,2.29.42-.71.96-1.6,1.5-2.49.25.11.49.23.74.34-.36,1.52-.63,3.06-1.11,4.53-.19.6-.85,1.04-1.29,1.56-.38-.49-.81-.96-1.12-1.49-.18-.32-.16-.76-.21-.99-.66.82-1.33,1.64-2,2.46-.52-1.06-1.09-2.09-1.53-3.17-.34-.85-.52-1.76-.77-2.65.26-.21.52-.42.78-.62Z"/>
  <path class="cls-1" d="M78.03,84.03c.54.88,1.08,1.75,1.52,2.46.53-.63,1.16-1.38,1.79-2.13.5.76.99,1.52,1.55,2.37.38-.78.8-1.65,1.22-2.52.3.1.6.19.9.29-.42,1.81-.78,3.63-1.33,5.4-.06.18-1.42.28-1.81-.03-.43-.35-.44-1.21-.78-2.37-.28,1.06-.33,1.69-.61,2.2-.2.37-.7.81-1.06.8-.38,0-.98-.44-1.08-.81-.49-1.67-.84-3.39-1.25-5.09.32-.19.64-.39.96-.58Z"/>
  <path class="cls-1" d="M55.04,87.16c.09,2.12-.79,3.4-2.74,3.47-1.93.07-2.96-1.13-3.01-3.04-.06-1.89.81-3.2,2.8-3.21,1.84-.01,3.12.86,2.95,2.79Z"/>
  <path class="cls-1" d="M139.23,84.39c2.08.07,2.9,1.21,2.84,3.14-.05,1.92-.97,3.17-2.93,3.1-1.89-.07-2.85-1.28-2.84-3.22,0-2,1.01-2.96,2.92-3.02Z"/>
  <path class="cls-1" d="M73.31,90.88c-.82-.91-1.63-1.82-2.65-2.96-.11.92-.2,1.68-.29,2.44-1.67-.24-1.82-.93-1.18-6.41,1.22.83,2.19,1.49,3.03,2.06.37-.47.86-1.07,1.34-1.67.21.75.54,1.48.6,2.24.1,1.25.03,2.52.03,3.78-.29.17-.58.35-.86.52Z"/>
  <path class="cls-1" d="M143.45,84.11c.96.68,1.92,1.36,2.83,2,.3-.53.69-1.23,1.09-1.94.23.1.45.2.68.31v5.98l-.58.44c-.89-.91-1.78-1.82-2.82-2.88-.05.57,0,1.06-.14,1.48-.14.39-.49.71-.75,1.07-.28-.41-.77-.8-.8-1.23-.1-1.51-.04-3.03-.04-4.55.18-.22.36-.45.55-.67Z"/>
  <path class="cls-1" d="M63.54,90.68v-5.98h4.73l.06.57c-.92.27-1.85.55-3.32.98,1.33.32,2.07.51,2.81.69.04.2.09.41.13.61-.8.31-1.59.61-2.92,1.12,1.37.32,2.32.55,3.27.77l.04.87c-1.49.11-2.99.23-4.81.37Z"/>
  <path class="cls-1" d="M109.13,90.4c-2.01.65-3.82-3.05-5.35,1.21-.17-.4-.35-.79-.52-1.19.57-1.85.9-3.83,1.8-5.51.56-1.05,1.92-1.05,2.46.44.57,1.58,1.03,3.19,1.62,5.04Z"/>
  <path class="cls-1" d="M119.56,84.6c2.17-.18,2.41.59,1.73,5.65q-2.11.19-1.73-5.65Z"/>
  <path class="cls-1" d="M133.76,90.81v-6.22c.19-.16.37-.33.56-.49.47.49,1.44,1.21,1.34,1.45-.72,1.62,1.58,4.27-1.9,5.27Z"/>
  <path class="cls-1" d="M29.9,62.58c-3.39.16-6.78.32-10.17.48l-.03-.98h10.19c0,.17,0,.33,0,.5Z"/>
  <path class="cls-1" d="M22.07,46.29c.87-.75,1.74-1.51,2.99-2.58,1.15,1.34,2.29,2.66,3.42,3.98-.17.32-.35.63-.52.95-1.42-2.66-3.16-4.06-5.89-2.34Z"/>
  <path class="cls-2" d="M11.72,53.18c2,.66,3.61,1.18,5.22,1.71-.06.32-.11.65-.17.97-1.43-.18-2.87-.37-4.55-.58-.09-.39-.24-1-.5-2.09Z"/>
</svg>