<?xml version="1.0" encoding="UTF-8"?>
<svg id="Layer_1" data-name="Layer 1" xmlns="http://www.w3.org/2000/svg" viewBox="0 0 161 129.5">
  <defs>
    <style>
      .cls-1 {
        fill: #231f20;
        stroke-width: 0px;
      }
    </style>
  </defs>
  <path class="cls-1" d="M8.87,66.6c.73,4.11,2.32,7.78,4.99,11.06,5.85,7.19,18,9.09,25.6,3.87.08-.05.11-.18.24-.41-.69-.36-1.42-.44-2.16-.54-1.94-.25-2.16-.59-1.71-2.5.6-2.52.59-2.5,3.18-1.92.81.18,1.66.19,2.49.24.51.03,1.17-.04,1.28-.56.11-.56-.53-.75-1.01-.9-.69-.21-1.39-.39-2.08-.59-2.61-.78-3.85-2.34-3.78-4.79.07-2.49,1.65-4.44,4.17-4.93,2.32-.45,4.65-.28,6.95.31.83.21,1.09.68.93,1.45-.12.6-.27,1.19-.41,1.78-.26,1.12-.83,1.65-2.04,1.14-.99-.42-2.05-.52-3.12-.42-.27.03-.59.07-.64.41-.06.35.22.48.49.56.85.26,1.7.51,2.55.74,3.62.97,5.01,5.38,2.49,8.17-4.48,4.98-9.9,8.2-16.74,8.64-11.65.76-22.25-7.21-24.3-19.17-.05-.32,0-.66.01-.99.5.65.89,1.33.93,2.2.03.71.7,1.13,1.26,1.04.82-.13.43-.84.28-1.32-.28-.89.25-1.71.14-2.58Z"/>
  <path class="cls-1" d="M70.11,72.79c1.19-2.43,1.33-4.73,1.9-6.91.26-1,.65-1.35,1.68-1.36,4.05-.02,4.03-.05,4.76,4.01.2,1.13.52,2.24.85,3.68,1.01-1.92,1.06-3.76,1.36-5.5.29-1.69.93-2.28,2.72-2.19,3.59.19,3.61.07,2.5,3.53-1.18,3.69-2.44,7.36-3.56,11.07-.35,1.16-.96,1.67-2.11,1.63-.94-.03-1.89-.1-2.83-.13-.76-.02-.82-.57-.96-1.13-.51-2.02-1.07-4.04-1.92-6.05-.5,1.89-1.05,3.77-1.5,5.67-.25,1.06-.71,1.7-1.9,1.58-.38-.04-.78.06-1.16.08-1.71.08-2.79-.39-3.29-2.34-1.06-4.13-2.41-8.18-3.7-12.24-.37-1.16-.14-1.61,1.15-1.65,4.27-.12,4.27-.16,5.18,4.01.28,1.27.49,2.55.82,4.25Z"/>
  <path class="cls-1" d="M8.87,66.6c.11.87-.42,1.69-.14,2.58.15.48.54,1.19-.28,1.32-.56.09-1.23-.34-1.26-1.04-.04-.88-.43-1.55-.93-2.2-1.54-12.41,7.14-23.1,18.3-25.13,3.23-.59,6.52-.68,9.78-.09,1.13.2,2.17.69,2.51,1.92.33,1.21-.27,2.13-1.12,2.94-1.58,1.52-3.57,1.92-5.65,2.08-1.49.11-2.74.07-3.09,2.24-.35,2.16-2.69,3.1-4.29,4.44-.91-.86-1.06-1.73-.16-2.72.24-.26.28-.71.41-1.07.56-.51,1.27-.93,1.25-2.04-2.95.7-5.06,2.42-6.76,4.75-.36.49-.64,1.04-.98,1.54-.5.74-1.18,1.06-2,.56-.84-.51-.76-1.35-.4-2.07.97-1.97,2.34-3.64,4.07-4.98,2.87-2.22,6.18-3.19,9.77-3.31,1.4-.05,2.78-.14,4.13-.49.44-.11,1.11-.29,1.01-.9-.1-.56-.73-.34-1.14-.36-5.6-.32-10.89.63-15.33,4.31-5.54,4.59-8.08,10.55-7.68,17.73Z"/>
  <path class="cls-1" d="M34.32,72.43c0,2.11-.04,4.22.02,6.33.02.95-.29,1.36-1.25,1.58-2.53.57-5.05.84-7.61.36-3.29-.62-4.97-2.26-5.17-5.54-.19-3.21-.06-6.44-.09-9.66,0-.71.31-1.02,1-1.01,1.17.02,2.34.05,3.51.03.91-.01.93.57.93,1.22,0,2.44-.05,4.89.01,7.33.03,1.21.08,2.51,1.56,3.01,1.06.36,1.73.2,1.72-1.13-.03-2.94.05-5.89-.02-8.83-.03-1.27.4-1.61,1.63-1.6,3.79.03,3.79-.02,3.78,3.75,0,1.39,0,2.78,0,4.17h-.02Z"/>
  <path class="cls-1" d="M100.22,70.54c-.04,2.66-.13,5.32-.1,7.98.01,1.16-.34,1.69-1.54,1.86-2.59.38-5.15.86-7.77.27-3.3-.74-4.72-2.68-4.46-6.13.16-2.12,2.36-3.95,5.11-4.2.72-.06,1.45-.03,2.17-.07.36-.02.89.15.93-.41.03-.43-.4-.66-.75-.81-1.14-.48-2.32-.24-3.46-.04-2.09.38-3.35-.89-2.98-3.05.09-.54.46-.74.89-.87,2.6-.8,5.26-.93,7.9-.32,1.45.34,2.57,1.25,3.21,2.68.22.5.31,1.26,1.15,1.24-.39.57-.28,1.22-.29,1.85ZM95.09,75.19c.21-1.01-.11-1.68-1.25-1.52-1.09.16-2.58.04-2.58,1.66,0,1.56,1.45,1.4,2.48,1.53,1.23.15,1.49-.64,1.35-1.68Z"/>
  <path class="cls-1" d="M62.76,74.3c0,1.17-.13,2.35.03,3.49.26,1.76-.41,2.52-2.15,2.72-2.44.29-4.85.63-7.29.1-2.73-.59-4.22-2.35-4.25-5.14-.03-2.69,1.27-4.26,4.01-4.93,1.04-.26,2.09-.27,3.15-.28.4,0,1.03.22,1.08-.41.04-.45-.45-.74-.89-.88-1.27-.43-2.53-.09-3.78.12-.63.1-1.45.57-1.84-.14-.55-1.01-.81-2.17-.65-3.35.03-.19.38-.43.61-.48,2.94-.64,5.87-1.19,8.83,0,2.08.83,2.9,2.51,3.07,4.55.13,1.54.03,3.11.03,4.66.02,0,.03,0,.05,0ZM57.69,75.26c.09-.91-.01-1.8-1.22-1.59-1,.17-2.46.09-2.41,1.65.04,1.42,1.38,1.41,2.37,1.53,1.11.13,1.42-.6,1.26-1.59Z"/>
  <path class="cls-1" d="M100.22,70.54c.01-.63-.1-1.28.29-1.85.16-.04.31-.08.47-.12.42,0,.88.18,1.19-.27.03-.83.14-1.66.06-2.48-.1-1.05.4-1.35,1.33-1.39,1.04-.04,1.38.46,1.27,1.42-.03.22,0,.44,0,.66.02,1.85,1.71,2.89,3.28,1.92.91-.56.46-1.64.4-2.45-.1-1.48.61-1.7,1.81-1.54.66.09.93.39.92,1.08-.03,2.93,0,5.86,0,8.79,0,.48-.05.89-.64.97-.59-.11-1.1.48-1.71.21-.56-.73-.35-1.58-.34-2.39.02-2.26.02-2.13-2.06-2.29-2.09-.15-1.61,1.21-1.64,2.34,0,.27,0,.55.02.82.12,1.03-.37,1.41-1.34,1.3-.3-.02-.6-.03-.9-.05-.49-.43-.38-1.02-.35-1.55.08-1.56.2-3.12-2.05-3.15Z"/>
  <path class="cls-1" d="M154.93,75.57c-.02-1.03-.11-2.07-.03-3.1.11-1.25-.33-1.62-1.6-1.57-2.23.09-2.23,0-2.23,2.25,0,.79.29,1.76-1.01,1.84-.44-.04-.87-.06-1.2.31-.1-.05-.17-.13-.2-.24.01-3.42.02-6.85.03-10.27.09-.07.18-.13.27-.2.49,0,.99-.01,1.49-.02,1.11.64.5,1.7.55,2.55.06,1.01.26,1.67,1.42,1.41.95-.21,2.58.69,2.42-1.43-.04-.55.02-1.11-.02-1.66-.05-.73.33-1.04.99-1,.61.04,1.53-.2,1.54.79.05,3.27.01,6.53-.02,9.8,0,.17-.27.33-.41.5,0,0-.01.03-.01.03-.67-.33-1.35-.37-2.02,0h.04Z"/>
  <path class="cls-1" d="M114.64,75.29c-1.07.16-1.47-.25-1.44-1.36.06-2.71.05-5.43,0-8.15-.02-.99.31-1.41,1.34-1.38,1.61.05,3.23.04,4.84.02.93-.01,1.24.39,1.25,1.31,0,1.1-.66.91-1.33.88-.78-.04-1.56-.04-2.33-.06-.74-.02-1.14.27-1.13,1.07,0,.74.41.96,1.06.95.56-.01,1.11-.01,1.67-.04.73-.03,1.42-.18,1.41,1,0,1.11-.38,1.5-1.47,1.36-.55-.07-1.11-.01-1.67-.03-.68-.03-1.04.23-1.02.96.02.72.26,1.16,1.08,1.12.78-.04,1.57.07,2.33-.06,1.14-.19,1.41.28,1.48,1.32.07,1.16-.58,1.07-1.35,1.06-1.39-.03-2.78,0-4.17,0-.18,0-.36,0-.54.01Z"/>
  <path class="cls-1" d="M123.43,74.97c-.48.41-.98.46-1.5.07-.61-.46-.09-.93.04-1.33.84-2.63,1.8-5.22,2.57-7.87.37-1.26,1.12-1.43,2.23-1.44,1.07-.01,1.58.35,1.89,1.39.79,2.65,1.72,5.25,2.54,7.88.15.5.95,1.39-.24,1.52-.75.08-2.09.74-2.27-.8-.19-1.59-1.02-1.97-2.47-1.83-.79.08-1.45.13-1.58,1.06-.11.74-.59,1.14-1.25,1.38,0,0,.05-.03.05-.03ZM126.55,67.73c-.58.55-.56,1.24-.74,1.86-.1.35-.43.79.13.95.39.11.89.09,1.28-.05.44-.16.13-.57.06-.85-.15-.62-.19-1.3-.74-1.91Z"/>
  <path class="cls-1" d="M22.95,51.87c-.13.36-.17.8-.41,1.07-.9.99-.75,1.87.16,2.72-.53.71-.61,1.58-.63,2.37-.05,2.62-1.48,4.48-3.24,6.13-.96.9-1.54,1.86-1.58,3.15-.02.86-.46,1.38-1.33,1.37-.93,0-1.33-.54-1.45-1.47-.29-2.34.99-3.94,2.49-5.43,1.25-1.26,2.22-2.69,2.24-4.49.04-2.69,1.57-4.25,3.74-5.43Z"/>
  <path class="cls-1" d="M141.86,70.88c0-.94-.07-1.89.02-2.82.11-1.2-.35-1.59-1.53-1.44-.55.07-1.41.41-1.35-.8.05-.91.23-1.46,1.33-1.42,1.89.07,3.78.03,5.67.02.84,0,1.33.26,1.35,1.24.03,1.08-.59.97-1.29.91-1.27-.12-1.8.39-1.73,1.73.1,1.88-.03,3.77.04,5.65.04.99-.23,1.37-1.28,1.39-1.15.02-1.26-.58-1.23-1.46.03-1,0-1.99,0-2.99Z"/>
  <path class="cls-1" d="M138.74,75.27c-1.61.01-3.22,0-4.83.04-.92.02-1.24-.31-1.22-1.27.07-2.71.05-5.42,0-8.13-.02-.94.21-1.46,1.26-1.47,1.08-.01,1.44.42,1.39,1.49-.08,1.66.08,3.33-.05,4.98-.13,1.58.36,2.3,2.01,2.05.38-.06.79.04,1.16-.03.86-.16.89.38.9.97,0,.14,0,.27,0,.41-.08.32-.16.63-.23.95-.13,0-.26.02-.39.02Z"/>
  <path class="cls-1" d="M123.43,74.97s-.05.03-.05.03c.43,1.88.42,3.77.18,5.71-1.02-.25-.87-1.51-1.79-1.7-.53.49.26,1.8-.71,1.69-.83-.1-.31-1.24-.37-1.9-.09-.96-.17-1.96.23-3.02,1,.54,1.06,1.7,1.99,2.45.04-1.22.13-2.28.53-3.26Z"/>
  <path class="cls-1" d="M148.86,75.3c.33-.37.77-.35,1.2-.31,1.45,1.22,1.36,2.88,1.27,4.53-.05.9-.5,1.4-1.47,1.42-.98.02-1.64-.37-1.74-1.36-.14-1.48-.16-2.97.74-4.28ZM150.46,78.37c0-.3,0-.52,0-.74-.02-.5-.02-1.05-.7-1.1-.74-.05-.7.54-.74,1.02-.02.22-.03.44,0,.66.09.71-.3,1.87.71,1.91,1.15.04.53-1.18.74-1.74Z"/>
  <path class="cls-1" d="M154.93,75.57s-.04.01-.04.01c.46.77.93,1.54,1.61,2.68.17-1.14.29-1.91.41-2.68,0,0,.01-.03.01-.03.91,1.66.18,3.41.13,5.25-.51-.71-1.02-1.42-1.67-2.32-.15.91-.27,1.58-.4,2.35-.78-1.18-.77-4.05-.06-5.25Z"/>
  <path class="cls-1" d="M108.89,75.51c.61.27,1.12-.32,1.71-.21,1.04,1.32.49,2.86.62,4.31.08.85-.27,1.23-1.08,1.3-.82.07-1.73,0-1.8-.96-.11-1.49-.49-3.07.54-4.44ZM110.64,78.36c-.07-.69.2-1.68-.79-1.75-.94-.07-1.03.79-.98,1.56.05.8-.11,1.95.91,2,1.08.06.77-1.1.86-1.81Z"/>
  <path class="cls-1" d="M126.99,78.17c0-.28-.04-.56.01-.83.12-.61-.42-1.77.76-1.57.84.14,2.62-.4,2.23,1.65-.09.48-.09.99-.03,1.48.17,1.34-.19,2.05-1.74,2.03-1.76-.03-1.14-1.22-1.22-2.09-.02-.22,0-.44,0-.66ZM129.33,78.66c-.07-.69.13-1.26-.21-1.75-.21-.31-.55-.4-.88-.28-.82.32-.68,1.06-.62,1.69.06.67-.13,1.5.69,1.86.31.14.72-.12.84-.39.16-.38.14-.85.18-1.13Z"/>
  <path class="cls-1" d="M135.88,81.11c-1.06-1.68-1.87-1.46-2.78-.2.06-1.71.44-3.27,1.09-4.74.17-.38.64-.22.72.16.31,1.47,1.17,2.82.97,4.78Z"/>
  <path class="cls-1" d="M114.64,75.29c.18,0,.36,0,.54-.01.03,1.33.06,2.66.09,3.98,0,.48.11.94.68.95.59,0,.67-.49.68-.95.02-.94,0-1.89.05-2.83,0-.17.21-.44.36-.48.35-.08.46.21.47.51,0,1.11.06,2.23-.03,3.33-.09,1-.84,1.18-1.72,1.12-.83-.06-1.15-.46-1.12-1.3.05-1.44,0-2.88,0-4.32Z"/>
  <path class="cls-1" d="M138.74,75.27c.13,0,.26-.02.39-.02.21.31.53.37.87.42.81.1,2.15-.19.5,1.17-.65.54-.13,1.91-.21,2.9-.03.36.13.94-.36.98-.67.05-.43-.6-.51-.99-.24-1.19.66-2.66-.88-3.55-.08-.04.14-.59.21-.9Z"/>
  <path class="cls-1" d="M102.62,75.24c.3.02.6.03.9.05.02.05.04.1.08.15.46.56,1.63-.26,1.66.55.03.94-1.07.36-1.61.62-.37.17-.51.42-.46.77.06.37.09.82.57.9.4.07.81.05,1.28.19-1.8-.18-2.11.92-1.86,2.52-.19-.09-.37-.18-.56-.27v-5.49Z"/>
  <path class="cls-1" d="M144.83,80.68c-.46-1.51-.63-3.07,0-4.65v4.65Z"/>
  <path class="cls-1" d="M148.69,64.79c0,3.43-.02,6.85-.03,10.27-.26-3.43-.33-6.85.03-10.27Z"/>
  <path class="cls-1" d="M150.45,64.57c-.5,0-.99.01-1.49.02.49-.39.99-.3,1.49-.02Z"/>
  <path class="cls-1" d="M102.17,68.29c-.32.45-.77.27-1.19.27.4-.09.79-.18,1.19-.27Z"/>
  <path class="cls-1" d="M139.36,74.29c0-.14,0-.28,0-.41.14.14.17.28,0,.41Z"/>
</svg>