<?xml version="1.0" encoding="UTF-8"?>
<svg id="Layer_1" data-name="Layer 1" xmlns="http://www.w3.org/2000/svg" viewBox="0 0 161 129.5">
  <defs>
    <style>
      .cls-1 {
        fill: #4c4c4c;
      }

      .cls-1, .cls-2 {
        stroke-width: 0px;
      }

      .cls-2 {
        fill: #231f20;
      }
    </style>
  </defs>
  <path class="cls-2" d="M102.74,48.37c1.5.02,1.84,1.11,2.15,2.27.59,2.13,1.22,4.24,1.94,6.72,1.52-1.76.68-3.48.88-5.02.11-.88.02-1.79.03-2.68.01-.99.71-1.09,1.48-1.12.81-.04,1.13.38,1.13,1.13,0,5.36,0,10.73.01,16.09,0,.82-.41,1.06-1.17,1.08-1.08.02-1.83-.15-2.18-1.42-.77-2.8-1.73-5.54-3.16-8.23,0,2.61,0,5.23,0,7.84,0,.87.21,1.82-1.25,1.82-1.46,0-1.51-.82-1.51-1.91.02-4.92.02-9.84,0-14.75,0-.88.08-1.61,1.11-1.81.18,0,.36,0,.54,0Z"/>
  <path class="cls-2" d="M132.07,62.81c-.64,3.46-1.55,4.16-5.63,4.32-.68.23-1.16.01-1.44-.65-1.22-1.41-1.67-3.02-1.63-4.89.08-3.63.02-7.26,0-10.9,0-1.11-.04-2.19,1.46-2.33,1.51.22,1.38,1.35,1.38,2.44,0,3.57,0,7.13.01,10.7,0,1.25-.14,2.81,1.63,2.78,1.65-.03,1.38-1.6,1.4-2.69.04-3.65,0-7.31.01-10.96,0-.94-.26-2.04,1.31-2.09,1.59-.05,1.36,1.04,1.37,1.99.05,4.1.09,8.2.13,12.29Z"/>
  <path class="cls-2" d="M112.47,50.98c-.53-3.39,2.26-2.07,3.74-2.61.9,0,1.8,0,2.7,0,.53.07,1.06.14,1.59.19.8.07.99.56.99,1.28,0,.73-.19,1.3-1.01,1.2-2.26-.28-2.11,1.18-2.1,2.68.04,3.74,0,7.47.02,11.21,0,1.01.13,1.95-1.42,1.93-1.6-.02-1.34-1.07-1.34-2.01,0-3.47-.2-6.95.07-10.4.2-2.64-.64-3.77-3.27-3.51l.04.03Z"/>
  <path class="cls-2" d="M145.84,85.96c-1.06.15-1.15-.56-1.15-1.32,0-3.65,0-7.3-.03-10.94,0-.86.36-1.32,1.17-1.49,1.06.04,2.13.08,3.19.13.71.03,1.54,0,1.46,1.05-.07.92-.88.8-1.43.73-2.33-.3-3.01.8-2.65,2.91.12.69.42,1.17,1.14,1.25.87.1,2.33-.46,2.04,1.11-.24,1.25-1.6.57-2.49.6-.87.98-.19,2.19-.47,3.24-.24.91.1,1.98-.78,2.71Z"/>
  <path class="cls-2" d="M47.86,93.38c-.69-.93-.62-2.01-.61-3.07.03-4.5.23-9.01-1.11-13.4,2.67.06,5.31.21,7.54,1.97-.62.52-1.42.88-2.16.77-2.03-.29-2.8.82-3.19,2.5.01.71.03,1.42.04,2.13-.01.17-.03.34-.04.51-.74,2.83.12,5.75-.48,8.59Z"/>
  <path class="cls-2" d="M145.84,85.96c-.36-2.14.52-4.03,1.25-5.95-.88,4.06-.47,4.71,3.06,4.82-.94,2.25-2.8,1.03-4.3,1.13Z"/>
  <path class="cls-2" d="M24.7,81.09c-.96-.03-1.89.11-2.77.52-.72,0-1.44,0-2.15,0,1.09-2.82,3.3-.68,4.93-1.1.21-.05.39,0,.43.18.06.33-.13.44-.44.4Z"/>
  <path class="cls-2" d="M53.68,78.88c-2.75.25-5.53.62-7.54-1.97-.19-.53-.38-1.07-.58-1.6-1.2-2.93.65-5.18,1.71-7.6.08-.53,1.02-1.11.13-1.56-1.02-.51-1.89-.06-2.46.92-1.61.51-1.87-.23-1.47-1.58.47-1.26,1.68-1.82,2.53-2.72.98-1.04,1.51-2.56-.26-2.93-3.38-.69-4.22-2.89-4.41-5.8-.21-3.18,1.47-5.15,4.16-6.47.24-.12.47-.26.7-.39,1.61-.71,3.36.05,4.99-.45,1.22-.03,1.97.64,2.48,1.66,0,.14.02.29.06.43,1.76.76,2.52,2.49,3.72,3.8.6.46.66,1.44,1.55,1.63,3.44,6.82,3.38,13.67-.1,20.42-1.07,2.06-2.73,3.74-5.22,4.22h0Z"/>
  <path class="cls-2" d="M22.4,78.4c-.33-.16-.67-.32-1-.48-2.59-2.77-4.1-6.19-5.66-9.57-.38-2.91-.1-5.84-.23-8.75,1.05-4.17,2.71-7.83,6.46-10.49,2.46-1.75,4.86-1.84,7.54-1.39.78,2.01-.64,2.93-1.94,3.91-1.14.43-3.15-.61-3.09,1.82.13.47.43.81.8,1.1.55.47.65,1.31,1.37,1.63.17.1.35.22.52.32.18.07.36.14.54.2.29.04.57.04.86-.01.54-.12,1-.46,1.56-.52.25-.01.49,0,.74.05,1.13.29,2.33.47,2.83,1.76-.68.85-1.56,1.47-2.64,1.58-2.32.26-2.27,1.49-1.42,3.12.3,1.06.5,2.06-.84,2.63-1.02.43-1.19,1.18-.61,2.1.44,1.97,2.32,2.75,3.47,4.14.19,1.18.59,2.4-.35,3.47-.88.44-1.59,1.09-2.22,1.86-1.82,2.24-4.18,2.25-6.69,1.53Z"/>
  <path class="cls-2" d="M98.46,62.28c-.19,2.08-.86,3.8-3.03,4.64-2.63,1.01-5.54-.64-5.63-3.48-.14-4.47-.02-8.94-.05-13.41,0-.96.2-1.51,1.32-1.5,1.22.01,1.47.64,1.46,1.7-.04,3.58-.08,7.16.02,10.73.03,1.04-.81,2.82,1.3,2.85,2.14.03,1.62-1.79,1.66-2.99.1-3.22,0-6.44.08-9.66.03-.99-.68-2.54,1.3-2.61,1.98-.08,1.37,1.41,1.46,2.47.05.53.08,1.07.13,1.6.28,3.22.5,6.44-.02,9.66Z"/>
  <path class="cls-2" d="M75.33,56.63c0,2.15.06,4.3-.02,6.44-.09,2.54-1.6,3.95-4.09,4-2.44.04-4.24-1.38-4.33-3.79-.16-4.38-.09-8.76-.15-13.15-.02-1.12.38-1.63,1.57-1.61,1.22.02,1.21.81,1.21,1.64.03,3.85.01,7.69.08,11.54.02,1.11-.13,2.63,1.56,2.6,1.71-.04,1.41-1.53,1.42-2.65.02-3.58-.02-7.16.02-10.73.01-.97-.47-2.31,1.3-2.37,2.02-.07,1.39,1.44,1.42,2.46.06,1.88.02,3.76.02,5.64Z"/>
  <path class="cls-2" d="M90.35,84.79c.01.35.18,1.05-.71,1.21-.94.17-1.27-.4-1.39-1.21-.12-.79-.16-1.6-1.34-1.59-1.13,0-1.31.7-1.4,1.54-.09.82-.5,1.38-1.38,1.28-1.11-.13-.8-1.01-.69-1.66.57-3.52,1.19-7.02,1.77-10.54.17-1.03.67-1.52,1.79-1.52,1.04,0,1.45.51,1.6,1.41.58,3.61,1.15,7.21,1.76,11.07Z"/>
  <path class="cls-2" d="M67.18,72.56c2.06-.67,1.5.89,1.76,1.93.31,1.23-1.21,3.55,1.29,3.52,2.26-.02.83-2.24,1.21-3.43.26-.81-.51-2.23,1.17-2.16,1.39.06.99,1.27,1,2.07.04,3.31.01,6.62,0,9.93,0,.83.05,1.69-1.19,1.62-1.07-.06-.96-.86-.97-1.56-.02-.98-.02-1.97-.02-2.95,0-.8-.17-1.38-1.17-1.41-1.11-.03-1.39.56-1.37,1.51.02,1.07,0,2.15,0,3.22,0,1.33-.66,1.5-1.72,1.01-.47-4.44-.45-8.88,0-13.31Z"/>
  <path class="cls-2" d="M131.9,84.28c-1.18-1.69-2.15-1.69-2.66.42-.22.9-.48,1.6-1.52,1.33-1.03-.26-.61-1.14-.51-1.78.52-3.33,1.07-6.66,1.61-9.99.18-1.11.48-2.04,1.97-1.96,1.4.08,1.47,1.01,1.6,2,.35,2.61.73,5.21,1.1,7.82-.37.83.02,2.23-1.59,2.15Z"/>
  <path class="cls-2" d="M120,85.84c-1.69-2.28-.79-4.97-1.16-7.45.25-1.97-.27-4.11,1.28-5.79h.01c3.35-1.05,5.39,0,5.44,2.77.01.51.2,1.12-.48,1.36-.76.26-.88-.45-1.11-.86-.76-1.3-1.42-2.84-2.96-.68-.3,2.86-.49,5.72.08,8.57,1.1.73,2.03.75,2.44-.71.19-.69.16-1.53,1.2-1.35,1.2.21.78,1.2.77,1.93,0,1.3-.95,2.03-1.85,2.76l.07-.02c-1.29.15-2.53-.07-3.73-.53Z"/>
  <path class="cls-2" d="M106.06,77.85c.13-.18.25-.36.38-.55.89-1.33-.21-3.06.85-4.6,1.21,1.73-.05,3.63.93,5.13,2.43.98,2.65-.34,2.64-2.3,0-1.04-.86-2.95.95-3.01,1.97-.07,1.05,1.88,1.11,2.93.14,2.58.13,5.18,0,7.76-.05.98.82,2.71-.98,2.79-1.92.09-.86-1.7-1.14-2.66-.07-.25-.05-.54,0-.8.35-2.09-.59-2.76-2.55-2.36-.95.82-.78,1.93-.89,3.01-.09.88.2,1.96-.84,2.56-.12.02-.23.04-.34.06-1.94-2.55-1.98-5.7-.12-7.97Z"/>
  <path class="cls-2" d="M76.34,85.93c-.85-4.48-.87-8.96,0-13.45.45.7,1.63.63,1.75,1.67-.17,1.98-.85,4.25,2.5,4.15.4-.01.52.42.54.79.03.5-.16.95-.7.92-3.65-.18-2.2,2.48-2.4,4.23.26,1.38-1.16,1.1-1.69,1.69Z"/>
  <path class="cls-2" d="M140.4,84.42c-.34-1-.72-1.98-1.02-3-.33-1.14-.91-.81-1.56-.34-.3.26-.9.36-.93.13-.16-1.38-1.25-2.89.4-4.09,1.71-.38,2.23-1.1.65-2.36-.37-.3-.58-.63-.59-1.11.17-.54.37-1.03,1.1-.71,1.08-.38,2.25-.96,3.18.15,1.32,1.58,1.16,3.44.7,5.3-.23.93-1.23,1.57-.96,2.68-.6,1.04,1.01,2.71-.97,3.35Z"/>
  <path class="cls-2" d="M94.59,83.84c.86.96,2.29.7,3.51,1.55-1.81,1.2-3.67.96-5.19.43-1.19-.42-.58-2.07-.6-3.17-.05-2.76-.04-5.52.02-8.28.02-.76-.49-2.02,1.03-1.93,1.22.07.86,1.13.91,1.86.2,3.18-.42,6.38.33,9.54h0Z"/>
  <path class="cls-2" d="M27.31,50.96c.94-.94.23-2.99,2.2-3.25,1.52-.26,2.2,1.01,3.2,1.71,1.7,3.31,1.69,3.34-.79,5.36-.82.33-1.64.28-2.45-.01-.97-1.13-2-2.22-2.16-3.8Z"/>
  <path class="cls-2" d="M102.33,74.15c-.04,3.3-.05,6.61-.12,9.91-.02.8.34,2.03-1.07,2.01-1.43-.02-.97-1.25-1-2.04-.12-3.3-.18-6.6-.26-9.89.82-.98,1.64-1.01,2.45.02Z"/>
  <path class="cls-2" d="M53.67,78.88c6.95-3.15,8.39-12.75,6.88-19.52-.39-1.73-1.03-3.41-1.55-5.12,2.54,2.6,2.69,6.05,2.69,9.26,0,5.32-.18,10.79-5.12,14.51-.92.69-1.72,1.27-2.89.87Z"/>
  <path class="cls-2" d="M24.65,80.06c1.5-.36,2.35.29,2.72,1.72.68,2.63,1.37,5.26,2.05,7.89-.22.85-.72,1.29-1.63,1.18-1.08-1.89-1.41-3.97-1.7-6.08-.18-1.29-.55-2.59-1.39-3.68.43-.19.43-.38,0-.58-.03-.15-.05-.3-.06-.45Z"/>
  <path class="cls-2" d="M138.45,72.95c-.23.4-.45.8-.68,1.21.9,1.23,1.94,2.47-.01,3.69-1.66,1.11-.45,2.17.06,3.24.04,1.24.1,2.48.11,3.72,0,.69-.25,1.23-1.08,1.17-.71-.06-.8-.6-.81-1.15,0-3.73-.1-7.46.05-11.18.08-1.84,1.24-1.53,2.35-.69Z"/>
  <path class="cls-2" d="M33.16,81.41c-.18-4.17-.37-8.35-.55-12.52-.21-.94.21-1.3,1.12-1.23,1.03,3.99.48,8.06.66,12.09.07,1.49.8,3.18-1.23,4.03-.28-.79-.26-1.58,0-2.37Z"/>
  <path class="cls-2" d="M33.73,67.66c-.37.41-.75.82-1.12,1.23-.75-1.07-1.38-2.23-2.51-2.98-.65-.43-1.27-1.05-2.13-.69-1.15.48-.59,1.47-.59,2.28.31.25.29.47-.05.67-.72-.47-.91-1.24-1.21-1.98-.46-1.09-.31-1.69.99-1.63,1.39.07,2.01-.84,2.55-1.88,2.06,1.09,3.46,2.72,4.08,4.98Z"/>
  <path class="cls-2" d="M15.98,68.71c2.95,2.4,3.82,6.01,5.42,9.2-3.99-1.78-4.73-5.59-5.8-9.2.06-.12.12-.25.19-.37.06.12.13.25.19.37Z"/>
  <path class="cls-2" d="M31.63,53.68c1.55-1.12,1.2-2.71,1.08-4.25,2.55,2.22,2.83,4.62.99,8.54-1.05-.36-2.11-.71-3.16-1.07-.13-.22-.15-.46-.06-.7.59-.75,2.11-1.08,1.15-2.53Z"/>
  <path class="cls-2" d="M27.79,90.85c.54-.39,1.09-.78,1.63-1.18.78,1.76,1.56,3.51,2.35,5.27.15.77,1.16,1.38.43,2.31-1.56.25-2.26-.8-2.76-1.96-.62-1.45-1.11-2.96-1.65-4.45Z"/>
  <path class="cls-2" d="M12.91,41.64c1.53,3.31,4.48,5.87,4.98,9.75-1.54-3.23-4.68-5.41-5.62-8.99.23-.24.18-.71.64-.75Z"/>
  <path class="cls-2" d="M34.81,82.7c.71,3.58.97,7.2.63,10.84-.09.97-.41,1.9-1.07,2.67-.47-.08-.77-.36-.94-.8.11-2.89.81-5.77.09-8.67.02-1.47-.19-3.02,1.28-4.03Z"/>
  <path class="cls-2" d="M30.61,74.64c-1.46,3.99-2.49,4.52-8.13,4.23-.03-.16-.05-.32-.08-.48,1.41-.1,2.65-.85,4.13-.85,1.24,0,2.1-1.18,2.23-2.32.21-1.95,1.08-.92,1.85-.58Z"/>
  <path class="cls-2" d="M102.33,74.15c-.82.33-1.64.92-2.45-.02-.76-.12-2.04.52-1.94-.98.08-1.19,1.22-.72,1.92-.78.88-.08,1.78-.07,2.66,0,.7.06,1.85-.4,1.84.87-.02,1.49-1.31.68-2.03.9Z"/>
  <path class="cls-2" d="M52.67,40.7c1.83.12,3.68-1.19,5.49.09-.57.57-1.28,1.04-2.06.97-1.83-.16-2.65.98-3.41,2.3-.38-1.25-.76-2.51-1.14-3.76.57-.41.8.12,1.12.4Z"/>
  <path class="cls-2" d="M106.52,85.75c.06-1.49.21-2.99.14-4.48-.06-1.38.55-1.47,1.59-1.1-.02,1.51-.03,3.01-.05,4.52-.01,1.22-.55,1.61-1.69,1.06Z"/>
  <path class="cls-2" d="M52.7,44.02c-.02.44-.05.89-.04,1.33,0,.61-.16,1.4.66,1.54.93.16.84-.73.95-1.29.61-3.01,2.86-2.26,4.84-2.13-.18.18-.35.36-.53.54-1.24,1.09-3.31,1.22-3.77,3.23-.38.38-.76.77-1.14,1.15-.7-.38-1.41-.77-2.11-1.15,0-.77.19-1.48.54-2.16.2-.35.41-.71.61-1.06Z"/>
  <path class="cls-2" d="M23.21,37.5c3.77.38,7.56-.37,11.28.33-3.8.79-7.58.71-11.28-.33Z"/>
  <path class="cls-2" d="M43.48,65.49c.18.81.62,1.39,1.47,1.58-.71,1.35-1.85,2.55-1.5,4.27-.13.23-.32.29-.55.2-.27-.27-.6-.49-.95-.68-.04-.71-.08-1.43-.12-2.14.57-1.07.72-2.35,1.65-3.23Z"/>
  <path class="cls-2" d="M78.09,74.15c-.9-.22-1.53-.74-1.75-1.67,1.33-.04,2.65-.11,3.98-.12.6,0,1.34-.06,1.39.82.06,1.11-.81.94-1.49.97-.71.02-1.42,0-2.13,0Z"/>
  <path class="cls-2" d="M140.4,84.42c.95-.93-.84-2.66.97-3.35.3,1.02.64,2.03.9,3.06.17.68.97,1.64-.35,1.93-1.18.26-1.52-.62-1.53-1.64Z"/>
  <path class="cls-2" d="M76.34,85.93c-.15-1.28,1.24-1.01,1.69-1.69.81,0,1.61,0,2.42.02.65.01,1.31.04,1.27.95-.04.92-.76.87-1.37.86-1.34-.02-2.68-.1-4.02-.15Z"/>
  <path class="cls-2" d="M15.98,68.71c-.13,0-.25,0-.38,0-.57-3.04-.77-6.08-.09-9.13.49.06.9.2.77.82-.56,2.75-.11,5.54-.3,8.3Z"/>
  <path class="cls-2" d="M54.8,47.25c-.16-2.72,1.39-3.46,3.77-3.23-.5,1.95-2.34,2.35-3.77,3.23Z"/>
  <path class="cls-2" d="M52.67,40.7c-.37-.13-.74-.27-1.12-.4-1.63-.34-3.39.27-5.63-1.05,2.86,0,5.05,0,7.25,0-.17.48-.34.97-.51,1.45Z"/>
  <path class="cls-2" d="M131.9,84.28c.51-.74.76-1.66,1.59-2.15.18.67.39,1.34.53,2.03.19.9.27,2-.87,2.14-1.45.18-1.36-1.01-1.26-2.02Z"/>
  <path class="cls-2" d="M67.18,72.56c0,4.44,0,8.88,0,13.31-.68-4.44-.65-8.88,0-13.31Z"/>
  <path class="cls-1" d="M15.91,47.64c-.21.25-.43.5-.64.75-.68-2.07-.93-4.13-.17-6.15.27,0,.54,0,.81,0v5.4Z"/>
  <path class="cls-2" d="M57.45,52.62c-2.23-.3-2.41-2.6-3.72-3.8,2.19.34,3.12,1.91,3.72,3.8Z"/>
  <path class="cls-2" d="M34.81,82.7c-.74,1.36-.41,2.85-.5,4.29-2.54-.45-1.12-2.04-.95-3.28.34-1.32.69-2.64,1.03-3.96.38.95.52,1.93.42,2.95Z"/>
  <path class="cls-2" d="M108.22,77.83c-.94-1.07-.36-2.5-.88-3.83-.54,1.13-.07,2.4-.9,3.3-.05-1.24-.1-2.49-.13-3.73-.02-.73.28-1.2,1.1-1.15.74.05.79.58.8,1.14.01,1.43,0,2.85.01,4.28Z"/>
  <path class="cls-2" d="M33.76,95.55c.2.22.41.43.61.65-.44.94-1.21,1.19-2.17,1.06-.37-.73-1.15-1.38-.43-2.31.28,0,.55.01.83.02.64-.3.93.09,1.17.59Z"/>
  <path class="cls-2" d="M52.09,45.08c0,.77-.08,1.51-.54,2.16-1.79-.02-3.58-.04-5.36-.06,1.7-1.44,4.5.18,5.91-2.1Z"/>
  <path class="cls-2" d="M121.09,83.75c-1.26-2.84-.65-5.7-.08-8.57.03,2.86.05,5.71.08,8.57Z"/>
  <path class="cls-2" d="M41.95,70.86c.23-.23.57-.69.66-.65.55.27.25.88.42,1.33.59,5.54.55,11.08.04,16.62-.25,2.66-.23,5.27,1.04,7.71-.03.09-.07.18-.11.27.42.43.92.89.53,1.53-.24.4-.72.37-1.11.08-1.89-.76-2.43-2.39-2.74-4.18-.47-2.68-.22-5.37.15-8.01.69-4.88,1.05-9.77,1.12-14.69Z"/>
  <path class="cls-2" d="M44.11,95.87c-2-1.81-2-4.28-1.6-6.53,1.05-5.93.28-11.87.52-17.8.14-.06.28-.13.42-.2.42,5.06.77,10.11.11,15.19-.41,3.13.22,6.24.55,9.35Z"/>
  <path class="cls-2" d="M47.28,67.7c.18.72,1.07,1.53.28,2.15-1.84,1.45-1.5,3.58-1.99,5.46-1.44-2.9-.83-5.6,1.71-7.6Z"/>
  <path class="cls-2" d="M43.42,97.74c.82-.31.67-.97.58-1.6,1.06.03,1.83-1.08,2.98-.78-.83,2.21-1.56,2.7-3.56,2.38Z"/>
  <path class="cls-2" d="M47.86,93.38c.13-2.87-.71-5.79.48-8.59-.17,2.86.52,5.78-.48,8.59Z"/>
  <path class="cls-2" d="M86.15,58.02c-.64-.62-.23-.99.08-1.57,1.63-3.07,1.27-5.06-1.22-7.61-1.09-.16-2.18-.32-3.27-.47-1.03.68-3.26-.9-3.3,1.54-.09,5.34-.04,10.69,0,16.03,0,.37.4.74.62,1.11.36.39.7.38,1.04-.03,1.32-.12,2.65-.21,3.97-.37,1.68-.21,2.92-1.14,3.03-2.81.13-1.96.79-4.13-.93-5.81ZM82.44,51.12c1.49.06,1.86,1.19,1.88,2.46.03,1.45-.58,2.52-2.14,2.5-1.95-.03-.38-1.72-1.16-2.26.54-1.03-.72-2.78,1.42-2.7ZM82.41,64.12c-2.3-.09-.68-1.92-1.33-2.71.48-.96-.76-2.65,1.31-2.67,1.81-.02,2.09,1.28,2.11,2.74.02,1.46-.2,2.72-2.09,2.65Z"/>
  <path class="cls-2" d="M27.31,50.96c1.03.87,1.95,1.83,2.21,3.22-.06.12-.13.23-.19.35-.2.18-.43.3-.69.38-.39.06-.77.04-1.15-.08-1.59-.73-3.36.02-4.97-.6.33-2.98,2.08-4.18,4.79-3.27Z"/>
  <path class="cls-2" d="M26.19,56.98c-.83-.21-1.24-.87-1.61-1.56-.61-1.19.1-1.8,1.07-2.14,1.51-.54,1.85.8,2.47,1.65.13.25.19.51.18.79-.05.27-.17.51-.36.71-.52.38-.99.95-1.76.56Z"/>
  <path class="cls-2" d="M27.32,68.16c.02-.22.04-.45.05-.67,2.48.07,2.77,2,3.25,3.78-2.02-.06-2.23-2.04-3.3-3.11Z"/>
  <path class="cls-2" d="M27.76,55.26c-1.13-1.35-2.24-2.45-3.17.16-.69-.39-1.38-.79-2.06-1.19.85.01,1.4-.57,2.06-.98,1.41-.86,2.64-.83,3.33.95.26.4.21.75-.16,1.06Z"/>
  <path class="cls-2" d="M30,56.91c-.19.85-.98.8-1.57,1.05-.37,0-.68-.14-.91-.44-.1-.22-.14-.45-.12-.69.07-.23.19-.43.37-.59.2-.13.41-.26.62-.38.24-.06.48-.07.72-.02.49.19.78.56.89,1.07Z"/>
  <path class="cls-2" d="M27.9,58.5c-.77-.05-1.42-.28-1.66-1.11.33-.25.68-.3,1.06-.15.32.36.82.64.6,1.26Z"/>
  <path class="cls-2" d="M27.2,57.5c-.32-.04-.64-.07-.97-.11,0-.14-.02-.28-.04-.42.39-.37.78-.75,1.17-1.12.12.13.26.22.43.26,0,0,.06.25.06.25,0,.19,0,.37,0,.56-.13.16-.24.34-.33.53-.1.02-.21.04-.31.05Z"/>
  <path class="cls-2" d="M30,56.91c-.36-.15-.73-.3-1.09-.45,0-.41.21-.68.57-.84.4-.05.71.09.95.4.04.12.08.23.11.35,0,.18,0,.36,0,.53-.18,0-.36,0-.54,0Z"/>
  <path class="cls-2" d="M27.9,58.5c-.23-.33-.46-.67-.7-1,0,0,.23-.12.23-.12.19-.18.35-.15.5.06.17.17.34.35.5.52-.18.18-.35.36-.53.54Z"/>
  <path class="cls-2" d="M33.76,95.55c-.39-.2-.78-.39-1.17-.59.87-3.54.24-7.1.25-10.66,0-.97.21-1.93.32-2.9.06.77.13,1.53.2,2.3-.03,1.19-.41,2.49.96,3.28.27,2.89.32,5.76-.55,8.57Z"/>
  <path class="cls-2" d="M86.83,76.25c.34,1.37.57,2.04.66,2.73.08.66.49,1.43-.31,1.94-.17.11-.59.07-.75-.06-.56-.49-.33-1.15-.22-1.75.13-.7.29-1.38.61-2.86Z"/>
  <g>
    <path class="cls-2" d="M65.51,40.82c-.07-.17-.18-.29-.28-.42-.24,0-.4.2-.66.14-.32-.26-.63-.52-.95-.78-.09-.01-.17-.04-.26-.05-1.74.36-3.47.72-5.21,1.08-.97-.05-1.93.17-2.89.32-1.75.12-2.51,1.18-2.58,2.95v-.04c-.39.3-.31.78-.41,1.19-.22.86-.51,1.8.58,2.27,1.04.45,1.56-.35,2.14-1.04,1.12-1.32,2.68-2.05,4.11-2.96l1.15-.53c1.5-1.06,3.22-.06,4.78-.53.02-.42.04-.85.07-1.27.08-.18.29-.19.41-.32Z"/>
    <path class="cls-2" d="M72.54,37.68c-.48-1.01-1.2-1.18-2.12-.58-.06.06-.15.05-.22.1,0-.16.01-.27,0-.47-2.85-.38-5.59.58-8.4.7-1.09.05-1.93.39-2.7,1.08-1.97.25-3.95.49-5.92.74-.82.41-1.15.96-.55,1.79.89.3,1.77.21,2.64.07.21-.01.27-.18.53-.16.84.07,1.39-.69,2.12-.97,1.62-.42,3.26-.73,4.93-.86,0,0,0,0,0,0,1.09-.37,2.19-.74,3.28-1.1,1.32.1,2.67-.23,4.06.5-1.35.36-2.51,1.19-3.82,1.64-.34.12-.59.39-.84.67.05.12.17.17.2.31.04.45-.03.88-.29,1.27-.13.06-.26-.01-.39.02,0,.01,0,.03,0,.04.71,1.32,1.64,1.17,2.66.38l-.04.03c1.39-.83,3.17-.79,4.39-1.99,1.09-.92.59-2.09.5-3.2Z"/>
  </g>
  <path class="cls-2" d="M31.63,53.68c1.31.15,2.07.95,1.67,2.15-.49,1.49-1.77.65-2.76.54,0,0,0,0,0,0-.31-.6-.81-1.03-1.27-1.5-.06-.23-.01-.43.14-.61,0,0,.1-.07.1-.07.75.03,1.48-.06,2.11-.51Z"/>
  <path class="cls-2" d="M28.45,56.32c-.2.01-.4.03-.6.04,0,0,0-.02,0-.02-.16-.13-.21-.25-.15-.38.06-.12.11-.18.17-.18-.03-.18-.07-.35-.1-.53.05-.35.11-.71.16-1.06.36.02.72.04,1.08.06.13.17.2.35.21.57.08.31.09.61-.06.91-.15.29-.45.41-.7.6Z"/>
  <path class="cls-2" d="M28.98,54.7c-.02-.15-.01-.3.02-.44.14,0,.28,0,.42,0,.02.15,0,.3-.02.45-.15.17-.28.16-.42-.02Z"/>
  <path class="cls-2" d="M27.86,55.79c0,.19,0,.37-.01.56-.16-.17-.32-.33-.48-.5.16-.03.33-.05.49-.06Z"/>
  <path class="cls-2" d="M28.45,56.32c.17-.2.34-.4.51-.59.18-.09.33-.05.44.13-.16.2-.33.4-.49.6-.15-.06-.3-.1-.46-.13Z"/>
  <path class="cls-2" d="M27.93,57.44c-.16-.03-.33-.04-.5-.06.14-.15.28-.31.41-.46.04.17.07.34.08.52Z"/>
  <path class="cls-2" d="M29.4,55.86c-.15-.03-.3-.08-.44-.13-.17-.35-.27-.69.02-1.03.14.03.28.04.42.02,1.11.05,1.32.72,1.15,1.65-.38-.17-.76-.34-1.15-.51Z"/>
</svg>