<?xml version="1.0" encoding="UTF-8"?>
<svg id="Layer_1" data-name="Layer 1" xmlns="http://www.w3.org/2000/svg" viewBox="0 0 161 129.5">
  <defs>
    <style>
      .cls-1 {
        stroke-width: 0px;
      }
    </style>
  </defs>
  <path class="cls-1" d="M47.1,101.5v-45.66h4.78c.18,1.23.37,2.55.65,4.51,3.79-4.6,8.36-5.85,13.49-5.15,3.38.46,6.28,2.03,8.59,4.62,4.9,5.51,5.19,15.48.5,21.34-2.82,3.52-6.64,5.17-11.1,5.31-4.43.14-8.22-1.43-11.23-4.91-.23.12-.47.24-.7.36v19.59h-4.99ZM62.54,81.63c5.95.01,10.41-4.52,10.44-10.63.04-6.58-4.28-11.24-10.4-11.22-6.11.01-10.48,4.6-10.43,10.92.06,6.52,4.23,10.91,10.38,10.92Z"/>
  <path class="cls-1" d="M19.18,28c.43.23.84.48,1.28.67,2.13.93,3.34,3.03,2.93,5.14-.43,2.21-2.34,3.7-4.64,3.63-2.26-.07-3.92-1.48-4.32-3.69-.39-2.16.81-4.21,2.95-5.09.45-.18.86-.44,1.3-.66.17,0,.33,0,.5,0Z"/>
  <path class="cls-1" d="M85.36,62.14c-.9-.98-1.78-1.93-2.66-2.88,4.71-5.04,15.52-5.81,20.6-1.42,2.13,1.84,3.05,4.29,3.06,7.1.01,6.16-.02,12.32.07,18.48.02,1.6-.45,2.24-2.09,2.27-1.67.02-2.51-.48-2.31-2.28.06-.55-.1-1.12-.2-2.11-.72.6-1.21.94-1.63,1.37-3.77,3.84-9.47,4.98-14.45,2.87-5.94-2.52-7-10.83-1.9-14.8,2.88-2.24,6.29-2.91,9.8-3.15,1.74-.12,3.48-.06,5.23-.09,2.71-.04,3.31-.91,2.47-3.58-.96-3.06-3.97-5.05-7.61-4.84-1.47.09-2.97.41-4.35.91-1.38.5-2.62,1.37-4.03,2.14ZM98.01,70.53c-3.1.77-6.34,1.19-9.27,2.39-3.67,1.51-4.03,6.48-.74,8.42,4.77,2.81,12.69.94,13.53-6.54.41-3.67.22-3.82-3.53-4.27Z"/>
  <path class="cls-1" d="M15.67,84.93c-2-6.45-4.01-12.58-5.76-18.78-.76-2.67.06-5.06,2.49-6.78,1.28-.91,2.35-2.1,3.56-3.11,4.02-3.35,6.09-7.57,5.83-12.87-.02-.38,0-.76,0-1.27,6.51,4.05,8.63,12.78,5,20.22-3.56,7.3-7.17,14.57-11.12,22.59Z"/>
  <path class="cls-1" d="M110,81.31c1.23-1.03,2.37-1.98,3.68-3.07,2.44,2.06,5.01,3.91,8.43,3.36,1.2-.19,2.46-.45,3.53-1,2.53-1.29,2.81-4.22.46-5.84-1.32-.91-2.99-1.34-4.55-1.86-1.72-.57-3.53-.89-5.24-1.48-2.89-.99-4.82-2.9-5.19-6.07-.39-3.31.61-6.07,3.35-8.1,4-2.97,11.47-2.98,15.5-.06.87.63,1.84,1.12,3,1.82-1.54,1.25-2.2,1.74-2.8,2.29-1.12,1.03-2.04,1.26-3.37.09-1.93-1.7-4.45-2.12-6.79-1.26-1.26.46-2.86,1.86-3.02,3.01-.16,1.17,1.07,2.76,2.08,3.77.74.74,2.09.89,3.2,1.21,1.75.51,3.55.86,5.28,1.43,3.26,1.09,5.38,3.24,5.67,6.83.3,3.67-1.16,6.45-4.33,8.33-4.76,2.82-15.48,2.65-18.86-3.4Z"/>
  <path class="cls-1" d="M42.85,40.82v44.6c-.35.09-.58.2-.81.21q-4.77.29-4.77-4.51c0-12.23,0-24.45,0-36.68q0-3.89,3.97-3.77c.48.01.97.09,1.62.15Z"/>
  <path class="cls-1" d="M18.31,41.12c2.39,7.08-1.48,13.24-8.79,16.09-2.56-5.03.25-10.23,8.79-16.09Z"/>
  <path class="cls-1" d="M19.45,83.99c2.39-5.31,4.78-10.61,7.38-16.39,3.54,7.04.15,14.76-6.69,16.83-.23-.14-.46-.29-.68-.43Z"/>
</svg>