<?xml version="1.0" encoding="UTF-8"?>
<svg id="Layer_1" data-name="Layer 1" xmlns="http://www.w3.org/2000/svg" viewBox="0 0 161 129.5">
  <defs>
    <style>
      .cls-1 {
        fill: #231f20;
        fill-rule: evenodd;
        stroke-width: 0px;
      }
    </style>
  </defs>
  <path class="cls-1" d="M113.25,61.67h15.82v5.45h-15.82v-5.45ZM113.25,72.38h15.82v5.45h-15.82v-5.45Z"/>
  <path class="cls-1" d="M7.5,47.32c0-3.46,2.53-6.18,6.38-6.18,2.77,0,4.33,1.36,5.01,2.19l-2.14,2.14c-.44-.54-1.22-1.27-2.68-1.27-1.8,0-3.02,1.31-3.02,3.07s1.27,3.11,3.16,3.11c1.31,0,2.04-.34,2.29-.58v-.68h-1.95v-2.77h5.01v5.26c-1.27.88-2.77,1.85-5.69,1.85-3.84.05-6.38-2.68-6.38-6.13Z"/>
  <polygon class="cls-1" points="20.83 41.38 24.24 41.38 24.24 50.33 27.65 50.33 27.65 53.3 20.83 53.3 20.83 41.38"/>
  <path class="cls-1" d="M34.7,41.14c-3.94,0-6.47,2.73-6.47,6.18s2.53,6.18,6.42,6.23c3.94,0,6.47-2.73,6.47-6.23s-2.48-6.18-6.42-6.18ZM34.7,50.43c-1.75,0-2.92-1.31-2.92-3.11s1.17-3.07,2.92-3.07,2.92,1.31,2.92,3.07-1.17,3.11-2.92,3.11Z"/>
  <path class="cls-1" d="M49.74,47.07c.83-.54,1.27-1.36,1.27-2.43,0-2.09-1.51-3.26-4.04-3.26h-4.62v11.92h4.72c2.38,0,4.33-1.07,4.33-3.6,0-1.17-.54-2.09-1.65-2.63ZM45.7,44.15h.97c.58,0,.88.34.88.83s-.29.88-.83.88h-1.02v-1.7ZM46.92,50.43h-1.22v-1.95h1.27c.58,0,.92.49.92.97,0,.44-.34.97-.97.97Z"/>
  <path class="cls-1" d="M59.43,41.38h-3.6l-4.14,11.92h3.41l.68-2.29h3.65l.73,2.29h3.41l-4.14-11.92ZM56.6,48.29l.97-3.41,1.02,3.41h-2Z"/>
  <polygon class="cls-1" points="64.54 41.38 67.94 41.38 67.94 50.33 71.35 50.33 71.35 53.3 64.54 53.3 64.54 41.38"/>
  <polygon class="cls-1" points="82.93 41.38 76.31 41.38 76.27 41.38 76.27 53.3 79.67 53.3 79.67 48.97 82.5 48.97 82.5 46 79.67 46 79.67 44.35 82.93 44.35 82.93 41.38"/>
  <path class="cls-1" d="M84.2,48.63v-7.25h3.41v7.3c0,1.12.68,1.8,1.8,1.8s1.8-.68,1.8-1.8v-7.3h3.41v7.25c0,2.87-1.85,4.92-5.21,4.92-3.36-.05-5.21-2.04-5.21-4.92Z"/>
  <polygon class="cls-1" points="99.38 41.38 95.98 41.38 95.98 53.3 99.29 53.3 99.29 46.64 103.23 53.3 106.59 53.3 106.59 41.38 103.23 41.38 103.23 48.14 99.38 41.38"/>
  <path class="cls-1" d="M111.84,41.38h-3.89v11.97h3.89c3.84,0,6.38-2.29,6.38-5.99s-2.53-5.99-6.38-5.99ZM111.79,50.43h-.44v-6.23h.44c1.75,0,2.92,1.02,2.92,3.11s-1.17,3.11-2.92,3.11Z"/>
  <polygon class="cls-1" points="128.97 41.38 122.35 41.38 122.35 53.3 125.76 53.3 125.76 48.97 128.58 48.97 128.58 46 125.76 46 125.76 44.35 128.97 44.35 128.97 41.38"/>
  <path class="cls-1" d="M136.22,41.14c-3.89,0-6.42,2.73-6.42,6.18s2.53,6.18,6.42,6.23c3.89,0,6.42-2.73,6.42-6.23s-2.48-6.18-6.42-6.18ZM136.27,50.43c-1.75,0-2.92-1.31-2.92-3.11s1.17-3.07,2.92-3.07,2.92,1.31,2.92,3.07-1.17,3.11-2.92,3.11Z"/>
  <path class="cls-1" d="M150.78,48.29c1.02-.63,1.56-1.9,1.56-3.16,0-2.34-1.41-3.75-4.38-3.75h-4.23v11.92h3.41v-4.23h.63l2,4.23h3.75l-2.72-5.01ZM147.71,46.34h-.58v-2.09h.58c.78,0,1.17.34,1.17,1.02,0,.63-.39,1.07-1.17,1.07Z"/>
  <polygon class="cls-1" points="26.82 66.3 22.44 83.28 14.99 83.28 7.94 56.22 14.99 56.22 19.08 75.25 23.85 56.22 29.79 56.22 34.56 75.25 38.65 56.22 45.7 56.22 38.7 83.23 31.2 83.23 26.82 66.3"/>
  <path class="cls-1" d="M58.89,55.74c-8.52,0-14.16,6.13-14.16,13.97s5.65,14.06,14.16,14.06,14.16-6.13,14.16-14.06-5.65-13.97-14.16-13.97ZM58.89,77.59c-4.28,0-7.3-3.31-7.3-7.88s2.97-7.79,7.3-7.79,7.3,3.36,7.3,7.79-3.02,7.88-7.3,7.88Z"/>
  <polygon class="cls-1" points="136.61 66.69 136.61 83.23 130.14 83.23 130.14 56.22 136.86 56.22 146.69 73.01 146.69 56.22 153.16 56.22 153.16 83.23 146.59 83.23 136.61 66.69"/>
  <polygon class="cls-1" points="90.14 73.35 96.9 56.22 105.47 56.22 105.47 83.28 99.14 83.28 99.14 65.57 94.32 78.12 92.37 83.28 87.99 83.28 85.42 76.61 81.18 65.57 81.18 83.28 74.85 83.28 74.85 56.22 83.42 56.22 90.14 73.35"/>
</svg>