<?xml version="1.0" encoding="UTF-8"?>
<svg id="Layer_1" data-name="Layer 1" xmlns="http://www.w3.org/2000/svg" viewBox="0 0 161 129.5">
  <defs>
    <style>
      .cls-1 {
        fill: #231f20;
        stroke-width: 0px;
      }
    </style>
  </defs>
  <path class="cls-1" d="M167,81.38c-1.61,1.52-164.21,2.5-169.16,1.47-.45-.09-.8-.62-1.84-1.47h171Z"/>
  <path class="cls-1" d="M59.12,64.48v12.69h-4.41v-18.66h5.63c2.03,3.97,3.9,7.61,5.99,11.69,2.21-4.01,4.2-7.64,6.43-11.69h5.28v18.64h-4.76v-12.49c-2.53,4.38-4.74,8.22-7.22,12.51-2.36-4.31-4.47-8.17-6.94-12.69Z"/>
  <path class="cls-1" d="M92.94,70.26c2.25-4.19,4.16-7.74,6.31-11.74h5.32v18.6h-4.57v-12.62c-2.5,4.3-4.78,8.24-7.31,12.62-2.28-4.14-4.37-7.91-6.84-12.41v12.46c-1.49,0-2.96,0-4.44,0,0-6.19,0-12.38,0-18.68h5.59c1.97,3.89,3.79,7.5,5.95,11.76Z"/>
  <path class="cls-1" d="M33.52,75.35c.62-1.26,1.19-2.42,1.88-3.81,3.05,2.57,6.55,3.05,10.18,2.34,1-.2,1.83-1.29,2.74-1.97-.93-.62-1.78-1.58-2.8-1.79-2.18-.45-4.46-.43-6.68-.74-2.6-.37-4.74-1.55-5.13-4.36-.39-2.79,1.36-4.52,3.69-5.66,3.19-1.56,6.52-1.37,9.84-.49,1.69.45,3.34,1.04,5.31,1.66-.67,1.27-1.37,2.6-2.17,4.12-2.72-2.83-5.96-3.4-9.37-2.91-1.02.15-1.9,1.24-2.85,1.89.87.55,1.68,1.4,2.63,1.59,2.18.45,4.45.5,6.65.87,3.27.56,5.48,2.59,5.65,4.98.16,2.34-1.77,4.73-4.9,5.73-3.86,1.24-7.74.94-11.56-.34-.95-.32-1.89-.68-3.11-1.13Z"/>
  <path class="cls-1" d="M123.6,58.41c1.21,0,2.61-.01,4,.01.36,0,.71.14.67.13,0,3.58.02,6.99,0,10.41-.04,5.99-1.91,7.99-7.9,8.49-.65.05-1.3.15-1.96.16-7.92.17-10.23-2.07-10.23-9.93,0-2.94,0-5.89,0-9.05h4.51c0,3.97-.07,7.92.03,11.87.06,2.5,1.55,3.65,4.55,3.85,3.71.25,6.08-.74,6.25-3.22.3-4.12.08-8.27.08-12.71Z"/>
  <path class="cls-1" d="M135.77,77.15h-5.25c4.16-6.23,8.68-16.41,8.22-18.63h4.99c2.55,6.56,6.15,12.37,9.31,18.58h-5.92c-.06-4.26-1.25-4.89-4.57-4.52-.92.1-1.87.01-2.8.02-3.41.01-4.39,1.12-3.98,4.55ZM138.41,69.74h6.07c-1.03-2.12-1.91-3.95-3-6.21-1.15,2.33-2.07,4.2-3.06,6.21Z"/>
  <path class="cls-1" d="M31.62,59.53c-1.21,1.9-2,3.13-2.91,4.57-2.6-2.46-5.66-2.81-8.88-2.49-3.21.32-5.85,3.02-5.91,6.01-.06,3.09,2.62,5.99,5.92,6.28,3.54.31,6.89-.07,9.55-3.07.76,1.12,1.52,2.26,2.34,3.47-4.2,1.99-8.25,3.92-13.06,3.12-5.21-.87-9.1-4.8-9.03-9.41.07-5.1,3.86-9.4,9.34-9.62,4.01-.16,8.06.68,12.64,1.14Z"/>
</svg>